<svg xmlns="http://www.w3.org/2000/svg" version="1.1" xmlns:xlink="http://www.w3.org/1999/xlink" width="512" height="512" x="0" y="0" viewBox="0 0 512 512" style="enable-background:new 0 0 512 512" xml:space="preserve"><g><path fill-rule="evenodd" d="M256 0C114.8 0 0 114.8 0 256s114.8 256 256 256 256-114.8 256-256S397.2 0 256 0zm-92.4 368.5v-225c0-8.8 7.2-16 16-16h152.8c8.8 0 16 7.1 16 16v225c0 6.5-3.9 12.3-9.9 14.8-2 .8-4 1.2-6.1 1.2-4.1 0-8.2-1.6-11.3-4.7l-65.1-65-65.1 65c-4.5 4.6-11.4 6-17.4 3.5s-9.9-8.3-9.9-14.8z" clip-rule="evenodd" fill="#358f8b" opacity="1" data-original="#000000"></path></g></svg>