<svg xmlns="http://www.w3.org/2000/svg" version="1.1" xmlns:xlink="http://www.w3.org/1999/xlink" width="512" height="512" x="0" y="0" viewBox="0 0 512 512" style="enable-background:new 0 0 512 512" xml:space="preserve"><g><path d="M256 0C114.8 0 0 114.8 0 256s114.8 256 256 256 256-114.8 256-256S397.2 0 256 0zm106.8 143.5v50.9c0 8.8-7.2 16-16 16s-16-7.2-16-16v-34.9H272v193h38.8c8.8 0 16 7.2 16 16s-7.2 16-16 16H201.2c-8.8 0-16-7.2-16-16s7.2-16 16-16H240v-193h-58.8v34.9c0 8.8-7.2 16-16 16s-16-7.2-16-16v-50.9c0-8.8 7.2-16 16-16h181.6c8.8 0 16 7.1 16 16z" fill="#358f8b" opacity="1" data-original="#000000"></path></g></svg>