<svg xmlns="http://www.w3.org/2000/svg" version="1.1" xmlns:xlink="http://www.w3.org/1999/xlink" width="512" height="512" x="0" y="0" viewBox="0 0 512 512" style="enable-background:new 0 0 512 512" xml:space="preserve"><g><path d="M217.3 305.4v-59c0-8.8 7.2-16 16-16s16 7.2 16 16v59c0 8.8-7.2 16-16 16s-16-7.2-16-16zm-54.8 63.1V199.3h-15.4c-8.8 0-16-7.2-16-16s7.2-16 16-16h45.8v-23.8c0-8.8 7.2-16 16-16H303c8.8 0 16 7.2 16 16v23.8h45.8c8.8 0 15.9 7.2 15.9 16s-7.2 16-16 16h-15.4v169.2c0 8.8-7.2 16-16 16H178.5c-8.8 0-16-7.2-16-16zM256 0C114.8 0 0 114.9 0 256c0 141.2 114.8 256 256 256s256-114.8 256-256C512 114.9 397.1 0 256 0zm-31.1 159.5H287v7.9h-62.1zm37.8 145.9v-59c0-8.8 7.2-16 16-16s16 7.2 16 16v59c0 8.8-7.2 16-16 16s-16-7.2-16-16z" fill="#358f8b" opacity="1" data-original="#000000"></path></g></svg>