<svg xmlns="http://www.w3.org/2000/svg" version="1.1" xmlns:xlink="http://www.w3.org/1999/xlink" width="512" height="512" x="0" y="0" viewBox="0 0 512 512" style="enable-background:new 0 0 512 512" xml:space="preserve"><g><path fill-rule="evenodd" d="M368.5 341.1H245.4l-48.7 53c-3.1 3.4-7.4 5.2-11.8 5.2-1.9 0-3.9-.4-5.8-1.1-6.2-2.4-10.2-8.3-10.2-14.9v-42.1h-25.4c-8.8 0-16-7.2-16-16V169.3c0-8.8 7.2-16 16-16h225c8.8 0 16 7.1 16 16v155.8c0 8.8-7.2 16-16 16zm-176.8-88v-11.8c0-8.8 7.2-16 16-16s16 7.2 16 16v11.8c0 8.8-7.2 16-16 16s-16-7.2-16-16zm96.6 0v-11.8c0-8.8 7.2-16 16-16s16 7.2 16 16v11.8c0 8.8-7.2 16-16 16s-16-7.2-16-16zm-48.3 0v-11.8c0-8.8 7.2-16 16-16s16 7.2 16 16v11.8c0 8.8-7.2 16-16 16s-16-7.2-16-16zm272 2.9C512 114.8 397.2 0 256 0S0 114.8 0 256s114.8 256 256 256 256-114.8 256-256z" clip-rule="evenodd" fill="#358f8b" opacity="1" data-original="#000000"></path></g></svg>