<svg fill="#2a2b2e" id="Layer_1" enable-background="new 0 0 512 512" height="512" viewBox="0 0 512 512" width="512" xmlns="http://www.w3.org/2000/svg"><g><path d="m256 0c-141.2 0-256 114.8-256 256s114.8 256 256 256 256-114.8 256-256-114.8-256-256-256zm90.9 187.8-68.3 68.2 68.2 68.2c6.2 6.2 6.2 16.4 0 22.6-3.1 3.1-7.2 4.7-11.3 4.7s-8.2-1.6-11.3-4.7l-68.2-68.2-68.2 68.2c-3.1 3.1-7.2 4.7-11.3 4.7s-8.2-1.6-11.3-4.7c-6.2-6.2-6.2-16.4 0-22.6l68.2-68.2-68.2-68.2c-6.2-6.2-6.2-16.4 0-22.6s16.4-6.2 22.6 0l68.2 68.2 68.2-68.2c6.2-6.2 16.4-6.2 22.6 0 6.3 6.2 6.3 16.3.1 22.6z"/></g></svg>